<svg width="107" height="24" viewBox="0 0 107 24" fill="none" xmlns="http://www.w3.org/2000/svg">
<path d="M0 2C0 0.89543 0.895431 0 2 0H6C7.10457 0 8 0.895431 8 2V22C8 23.1046 7.10457 24 6 24H2C0.895431 24 0 23.1046 0 22V2Z" fill="white"/>
<path d="M22 19C23.1046 19 24 18.1046 24 17V13C24 11.8954 23.1046 11 22 11H18C16.8954 11 16 10.1046 16 9V5C16 3.89543 15.1046 3 14 3H10C8.89543 3 8 2.10457 8 1V13C8 11.8954 8.89543 11 10 11H14C15.1046 11 16 11.8954 16 13V17C16 18.1046 16.8954 19 18 19H22Z" fill="white"/>
<path d="M106.5 4.75C106.5 2.67893 104.821 1 102.75 1C100.679 1 99 2.67893 99 4.75C99 6.82107 100.679 8.5 102.75 8.5C104.821 8.5 106.5 6.82107 106.5 4.75Z" stroke="white" stroke-width="0.5"/>
<path d="M104.116 4.25004H103.676C103.65 4.12338 103.605 4.01211 103.539 3.91623C103.475 3.82035 103.397 3.73986 103.305 3.67476C103.214 3.60847 103.113 3.55875 103.001 3.52561C102.89 3.49246 102.774 3.47589 102.653 3.47589C102.433 3.47589 102.234 3.53153 102.055 3.6428C101.877 3.75406 101.736 3.91801 101.631 4.13463C101.527 4.35125 101.474 4.61699 101.474 4.93186C101.474 5.24673 101.527 5.51247 101.631 5.72909C101.736 5.94571 101.877 6.10965 102.055 6.22092C102.234 6.33219 102.433 6.38783 102.653 6.38783C102.774 6.38783 102.89 6.37125 103.001 6.33811C103.113 6.30496 103.214 6.25584 103.305 6.19074C103.397 6.12445 103.475 6.04336 103.539 5.94748C103.605 5.85042 103.65 5.73915 103.676 5.61368H104.116C104.083 5.79952 104.023 5.96583 103.935 6.11261C103.848 6.25939 103.739 6.38427 103.609 6.48726C103.478 6.58906 103.332 6.66659 103.17 6.71986C103.009 6.77312 102.837 6.79976 102.653 6.79976C102.343 6.79976 102.067 6.724 101.826 6.57248C101.585 6.42097 101.395 6.20553 101.256 5.92618C101.118 5.64682 101.048 5.31538 101.048 4.93186C101.048 4.54834 101.118 4.2169 101.256 3.93754C101.395 3.65818 101.585 3.44275 101.826 3.29123C102.067 3.13972 102.343 3.06396 102.653 3.06396C102.837 3.06396 103.009 3.09059 103.17 3.14386C103.332 3.19713 103.478 3.27525 103.609 3.37824C103.739 3.48004 103.848 3.60432 103.935 3.75111C104.023 3.8967 104.083 4.06301 104.116 4.25004Z" fill="white"/>
<path d="M32.7676 21V6.9668H40.9121L40.6777 8.38281H34.5742V12.9922H39.9941V14.4375H34.5742V21H32.7676ZM49.2227 18.8418C49.2227 19.2194 49.2617 19.4538 49.3398 19.5449C49.418 19.6296 49.5742 19.6719 49.8086 19.6719C49.8802 19.6719 49.9551 19.6719 50.0332 19.6719C50.1178 19.6654 50.1927 19.6621 50.2578 19.6621L50.1211 20.9805C50.1211 20.9805 50.0495 20.9837 49.9062 20.9902C49.7695 20.9967 49.6165 21.0033 49.4473 21.0098C49.278 21.0228 49.1413 21.0293 49.0371 21.0293C48.666 21.0293 48.373 20.9577 48.1582 20.8145C47.9434 20.6647 47.7904 20.4987 47.6992 20.3164C47.6081 20.1276 47.5625 19.9746 47.5625 19.8574C47.4258 20.0462 47.2207 20.2448 46.9473 20.4531C46.6738 20.6549 46.306 20.8275 45.8438 20.9707C45.3815 21.1074 44.7956 21.1758 44.0859 21.1758C43.2201 21.1758 42.5169 20.9186 41.9766 20.4043C41.4427 19.8835 41.1758 19.1868 41.1758 18.3145C41.1758 17.5332 41.3906 16.9375 41.8203 16.5273C42.25 16.1172 42.8066 15.8372 43.4902 15.6875C44.1738 15.5312 44.8932 15.4531 45.6484 15.4531C45.8763 15.4531 46.0977 15.4629 46.3125 15.4824C46.5273 15.4954 46.7194 15.5085 46.8887 15.5215L47.4258 15.5996V14.4961C47.4258 13.7995 47.3542 13.2819 47.2109 12.9434C47.0677 12.5983 46.8301 12.3704 46.498 12.2598C46.1725 12.1491 45.7298 12.0938 45.1699 12.0938C44.5189 12.0938 43.9167 12.1621 43.3633 12.2988C42.8164 12.429 42.3509 12.569 41.9668 12.7188L42.1621 11.2734C42.4681 11.1432 42.8717 11.0195 43.373 10.9023C43.8743 10.7786 44.5189 10.7168 45.3066 10.7168C46.3613 10.7168 47.1719 10.8568 47.7383 11.1367C48.3047 11.4167 48.6921 11.8724 48.9004 12.5039C49.1152 13.1354 49.2227 13.9785 49.2227 15.0332V18.8418ZM45.9414 16.5762C45.6549 16.5762 45.3327 16.5924 44.9746 16.625C44.6165 16.651 44.2747 16.7227 43.9492 16.8398C43.6237 16.9505 43.3535 17.1296 43.1387 17.377C42.9303 17.6178 42.8262 17.9531 42.8262 18.3828C42.8262 18.8841 42.9857 19.2552 43.3047 19.4961C43.6302 19.737 44.0892 19.8574 44.6816 19.8574C45.3457 19.8574 45.9023 19.7663 46.3516 19.584C46.8073 19.3952 47.1654 19.2031 47.4258 19.0078V16.6348L46.9473 16.6055L45.9414 16.5762ZM52.4648 21V10.9902L53.7246 10.8926L54.0664 12.0449C54.444 11.6543 54.8639 11.3516 55.3262 11.1367C55.7884 10.9219 56.2669 10.8145 56.7617 10.8145C56.8919 10.8145 57.0189 10.8275 57.1426 10.8535C57.2663 10.873 57.377 10.8958 57.4746 10.9219C57.5723 10.9479 57.6797 10.9837 57.7969 11.0293L57.582 12.4258C57.556 12.4062 57.5104 12.3835 57.4453 12.3574C57.3932 12.3444 57.3184 12.3314 57.2207 12.3184C57.123 12.2988 56.9961 12.2891 56.8398 12.2891C56.4688 12.2891 56.127 12.3379 55.8145 12.4355C55.502 12.5332 55.2318 12.6374 55.0039 12.748C54.8737 12.8132 54.7467 12.8848 54.623 12.9629C54.4993 13.0345 54.3822 13.1126 54.2715 13.1973V21H52.4648ZM59.6523 21V7.14258L61.459 6.9668V11.9668C61.9863 11.5501 62.5104 11.2539 63.0312 11.0781C63.5586 10.9023 64.1576 10.8145 64.8281 10.8145C65.9544 10.8145 66.7617 11.1595 67.25 11.8496C67.7383 12.5397 67.9824 13.7148 67.9824 15.375V21H66.1758V15.5117C66.1758 14.6328 66.1074 13.9525 65.9707 13.4707C65.834 12.9889 65.6322 12.6569 65.3652 12.4746C65.0983 12.2858 64.7663 12.1914 64.3691 12.1914C63.9655 12.1914 63.5716 12.2663 63.1875 12.416C62.8099 12.5658 62.4681 12.7253 62.1621 12.8945C61.8626 13.0638 61.6283 13.1777 61.459 13.2363V21H59.6523ZM78.2266 18.8418C78.2266 19.2194 78.2656 19.4538 78.3438 19.5449C78.4219 19.6296 78.5781 19.6719 78.8125 19.6719C78.8841 19.6719 78.959 19.6719 79.0371 19.6719C79.1217 19.6654 79.1966 19.6621 79.2617 19.6621L79.125 20.9805C79.125 20.9805 79.0534 20.9837 78.9102 20.9902C78.7734 20.9967 78.6204 21.0033 78.4512 21.0098C78.2819 21.0228 78.1452 21.0293 78.041 21.0293C77.6699 21.0293 77.377 20.9577 77.1621 20.8145C76.9473 20.6647 76.7943 20.4987 76.7031 20.3164C76.612 20.1276 76.5664 19.9746 76.5664 19.8574C76.4297 20.0462 76.2246 20.2448 75.9512 20.4531C75.6777 20.6549 75.3099 20.8275 74.8477 20.9707C74.3854 21.1074 73.7995 21.1758 73.0898 21.1758C72.224 21.1758 71.5208 20.9186 70.9805 20.4043C70.4466 19.8835 70.1797 19.1868 70.1797 18.3145C70.1797 17.5332 70.3945 16.9375 70.8242 16.5273C71.2539 16.1172 71.8105 15.8372 72.4941 15.6875C73.1777 15.5312 73.8971 15.4531 74.6523 15.4531C74.8802 15.4531 75.1016 15.4629 75.3164 15.4824C75.5312 15.4954 75.7233 15.5085 75.8926 15.5215L76.4297 15.5996V14.4961C76.4297 13.7995 76.3581 13.2819 76.2148 12.9434C76.0716 12.5983 75.834 12.3704 75.502 12.2598C75.1764 12.1491 74.7337 12.0938 74.1738 12.0938C73.5228 12.0938 72.9206 12.1621 72.3672 12.2988C71.8203 12.429 71.3548 12.569 70.9707 12.7188L71.166 11.2734C71.472 11.1432 71.8757 11.0195 72.377 10.9023C72.8783 10.7786 73.5228 10.7168 74.3105 10.7168C75.3652 10.7168 76.1758 10.8568 76.7422 11.1367C77.3086 11.4167 77.696 11.8724 77.9043 12.5039C78.1191 13.1354 78.2266 13.9785 78.2266 15.0332V18.8418ZM74.9453 16.5762C74.6589 16.5762 74.3366 16.5924 73.9785 16.625C73.6204 16.651 73.2786 16.7227 72.9531 16.8398C72.6276 16.9505 72.3574 17.1296 72.1426 17.377C71.9342 17.6178 71.8301 17.9531 71.8301 18.3828C71.8301 18.8841 71.9896 19.2552 72.3086 19.4961C72.6341 19.737 73.0931 19.8574 73.6855 19.8574C74.3496 19.8574 74.9062 19.7663 75.3555 19.584C75.8112 19.3952 76.1693 19.2031 76.4297 19.0078V16.6348L75.9512 16.6055L74.9453 16.5762ZM81.4688 21V10.9902L82.7285 10.873L82.9922 11.9961C83.1484 11.8789 83.3405 11.752 83.5684 11.6152C83.8027 11.472 84.0697 11.3418 84.3691 11.2246C84.6621 11.1074 84.9876 11.0098 85.3457 10.9316C85.7103 10.8535 86.0977 10.8145 86.5078 10.8145C87.0221 10.8145 87.4779 10.8861 87.875 11.0293C88.2786 11.1725 88.6204 11.4069 88.9004 11.7324C89.1803 12.0514 89.3919 12.4746 89.5352 13.002C89.6849 13.5228 89.7598 14.1576 89.7598 14.9062V21H87.9531V15.2969C87.9531 14.763 87.9238 14.3008 87.8652 13.9102C87.8066 13.5195 87.709 13.1973 87.5723 12.9434C87.3053 12.4486 86.8333 12.2012 86.1562 12.2012C85.7917 12.2012 85.4368 12.25 85.0918 12.3477C84.7533 12.4453 84.4473 12.5495 84.1738 12.6602C84.0176 12.7253 83.8646 12.7969 83.7148 12.875C83.5651 12.9466 83.4186 13.0247 83.2754 13.1094V21H81.4688Z" fill="white"/>
</svg>
